<?xml version="1.0" standalone="no"?>
<!DOCTYPE svg PUBLIC "-//W3C//DTD SVG 20010904//EN"
 "http://www.w3.org/TR/2001/REC-SVG-20010904/DTD/svg10.dtd">
<svg version="1.0" xmlns="http://www.w3.org/2000/svg"
 width="700.000000pt" height="700.000000pt" viewBox="0 0 700.000000 700.000000"
 preserveAspectRatio="xMidYMid meet">
<metadata>
Created by potrace 1.14, written by Peter Selinger 2001-2017
</metadata>
<g transform="translate(0.000000,700.000000) scale(0.100000,-0.100000)"
fill="#000000" stroke="none">
<path d="M1090 6411 c-87 -27 -155 -87 -194 -170 l-21 -46 0 -2695 0 -2695 21
-46 c30 -63 79 -116 138 -147 l51 -27 2415 0 2415 0 51 27 c59 31 108 84 138
147 21 46 21 55 24 919 1 479 -1 872 -5 872 -5 0 -319 -310 -698 -690 l-690
-690 -617 0 -618 0 0 613 0 612 1315 1315 1315 1315 -2 585 c-3 571 -4 586
-24 631 -30 63 -79 116 -138 147 l-51 27 -2400 2 c-1320 1 -2411 -2 -2425 -6z
m3280 -2036 l0 -285 -1160 0 -1160 0 0 285 0 285 1160 0 1160 0 0 -285z m-870
-1165 l0 -290 -725 0 -725 0 0 290 0 290 725 0 725 0 0 -290z"/>
<path d="M5212 3297 l-1132 -1132 0 -208 0 -207 213 0 212 0 1133 1133 1132
1132 -208 208 c-114 114 -209 207 -212 207 -3 0 -515 -510 -1138 -1133z"/>
</g>
</svg>
